<?xml version="1.0" encoding="utf-8"?>
<!-- Generator: Adobe Illustrator 28.0.0, SVG Export Plug-In . SVG Version: 6.00 Build 0)  -->
<svg version="1.1" id="logo" xmlns="http://www.w3.org/2000/svg" xmlns:xlink="http://www.w3.org/1999/xlink" x="0px" y="0px"
	 viewBox="0 0 41.5 9.6" style="enable-background:new 0 0 41.5 9.6;" xml:space="preserve">
<style type="text/css">
	.st0{fill:#fff;}
</style>
<path class="st0" d="M0.3,4.8l6.7-3.5l0,1.5L2.7,4.8l4.2,2l0,1.5L0.3,4.8z"/>
<path class="st0" d="M34.3,8.3l0-1.5l4.2-2l-4.2-2.1l0-1.5L41,4.8C41,4.8,34.3,8.3,34.3,8.3z"/>
<path class="st0" d="M19.2,8.8C19.5,8.4,22.5,5,23,4.3s0.7-1.1,0.7-1.5c0-0.3-0.1-0.6-0.3-0.9c-0.3-0.3-0.7-0.5-1.1-0.5
	s-0.8,0.2-1.1,0.5c-0.2,0.2-0.3,0.5-0.3,0.8c0,0.3,0.1,0.7,0.4,0.9l-1,0.8c-0.4-0.4-0.6-1-0.6-1.5s0.2-1.1,0.5-1.6
	c0.5-0.6,1.3-0.9,2.1-0.9s1.6,0.3,2.1,0.9c0.3,0.4,0.5,0.9,0.5,1.5c0,0.7-0.3,1.4-1,2.3c-0.4,0.5-2.5,2.7-2.5,2.7l3.4-0.1v1.1
	L19.2,8.8L19.2,8.8z"/>
<path class="st0" d="M32.6,8.2C32,8.7,31.1,9,29.9,9c-2.8,0-4.5-1.9-4.5-4.3s1.6-4.3,4.5-4.3c1.1,0,2,0.2,2.5,0.6l0,1.4
	c-0.4-0.4-1.3-0.8-2.5-0.8c-2,0-3.2,1.4-3.2,3.1s1.2,3.2,3.2,3.2c1.6,0,2.4-0.7,2.7-1L32.6,8.2L32.6,8.2z"/>
<polygon class="st0" points="13.3,0.3 11,6.2 9,0.6 7.6,0.6 10.9,9.1 13.3,3.2 14.9,7.1 15.5,5.7 "/>
<polygon class="st0" points="14.4,9.6 15.8,9.6 20,0 18.6,0 "/>
</svg>
